<svg xmlns="http://www.w3.org/2000/svg" version="1.1" xmlns:xlink="http://www.w3.org/1999/xlink" xmlns:svgjs="http://svgjs.dev/svgjs" width="1000" height="1000" viewBox="0 0 1000 1000"><rect width="1000" height="1000" fill="#000000"></rect><g transform="matrix(0.7,0,0,0.7,149.57575757575756,282.1265587044535)"><svg viewBox="0 0 396 247" data-background-color="#ffffff" preserveAspectRatio="xMidYMid meet" height="623" width="1000" xmlns="http://www.w3.org/2000/svg" xmlns:xlink="http://www.w3.org/1999/xlink"><g id="tight-bounds" transform="matrix(1,0,0,1,0.2400000000000091,-0.09999999999999432)"><svg viewBox="0 0 395.52 247.2" height="247.2" width="395.52"><g><svg></svg></g><g><svg viewBox="0 0 395.52 247.2" height="247.2" width="395.52"><g transform="matrix(1,0,0,1,75.54432,89.29301652013979)"><svg viewBox="0 0 244.43135999999998 68.61396695972041" height="68.61396695972041" width="244.43135999999998"><g><svg viewBox="0 0 244.43135999999998 68.61396695972041" height="68.61396695972041" width="244.43135999999998"><g><svg viewBox="0 0 244.43135999999998 68.61396695972041" height="68.61396695972041" width="244.43135999999998"><g><svg viewBox="0 0 244.43135999999998 68.61396695972041" height="68.61396695972041" width="244.43135999999998"><g id="textblocktransform"><svg viewBox="0 0 244.43135999999998 68.61396695972041" height="68.61396695972041" width="244.43135999999998" id="textblock"><g><svg viewBox="0 0 244.43135999999998 49.11984890387858" height="49.11984890387858" width="244.43135999999998"><g transform="matrix(1,0,0,1,0,0)"><svg width="244.43135999999998" viewBox="0.9000000357627869 -35.349998474121094 177.88999938964844 35.75" height="49.11984890387858" data-palette-color="#77d4fc"><path d="M23.15-33.7L23.15-30.15 14.05-30.15 14.05 0 10 0 10-30.15 0.9-30.15 0.9-33.7 23.15-33.7ZM35.5-3.05L35.5-3.05Q38.2-3.05 39.8-4.58 41.4-6.1 41.4-8.45L41.4-8.45 41.4-11.7 37-11.7Q33.8-11.7 32.2-10.45 30.6-9.2 30.6-7.3 30.6-5.4 31.85-4.23 33.1-3.05 35.5-3.05ZM41.45 0L41.45-3Q39.5 0.25 34.35 0.25L34.35 0.25Q30.8 0.25 28.62-1.85 26.45-3.95 26.45-7.15L26.45-7.15Q26.45-10.8 29.22-12.83 32-14.85 36.8-14.85L36.8-14.85 41.4-14.85 41.4-16.15Q41.4-19.15 40.05-20.68 38.7-22.2 35.5-22.2L35.5-22.2Q31.45-22.2 28.3-20.05L28.3-20.05 28.3-24Q31.15-25.75 35.8-25.75L35.8-25.75Q45.35-25.75 45.35-16.05L45.35-16.05 45.35 0 41.45 0ZM67.6-6.75L67.6-6.75Q67.6-3.5 65.32-1.6 63.05 0.3 59.1 0.3L59.1 0.3Q54.5 0.3 51.65-1.25L51.65-1.25 51.65-5.1Q55-3.1 58.85-3.1L58.85-3.1Q61.15-3.1 62.35-4 63.55-4.9 63.55-6.45L63.55-6.45Q63.55-8.25 62.22-9.25 60.9-10.25 57.8-11.5L57.8-11.5Q54.95-12.6 53.22-14.25 51.5-15.9 51.5-18.7L51.5-18.7Q51.5-21.85 53.87-23.73 56.25-25.6 59.8-25.6L59.8-25.6Q63.75-25.6 66.15-24.5L66.15-24.5 66.15-20.75Q63.85-22.15 59.85-22.15L59.85-22.15Q57.85-22.15 56.67-21.23 55.5-20.3 55.5-18.85L55.5-18.85Q55.5-17.95 55.85-17.28 56.2-16.6 57.22-15.95 58.25-15.3 58.72-15.08 59.2-14.85 60.8-14.15L60.8-14.15Q64-12.85 65.8-11.2 67.6-9.55 67.6-6.75ZM76.84-35.15L76.84 0 72.94 0 72.94-35.15 76.84-35.15ZM91.99-25.35L81.99-13.3 92.29 0 87.54 0 77.34-13.3 87.29-25.35 91.99-25.35ZM121.59-33.7L121.59 0 117.54 0 117.54-15.25 101.19-15.25 101.19 0 97.14 0 97.14-33.7 101.19-33.7 101.19-18.9 117.54-18.9 117.54-33.7 121.59-33.7ZM148.79-25.35L148.79 0 144.84 0 144.84-4.4Q142.84 0.3 136.89 0.3L136.89 0.3Q133.14 0.3 130.96-1.93 128.79-4.15 128.79-7.9L128.79-7.9 128.79-25.35 132.74-25.35 132.74-8.9Q132.74-6.15 134.14-4.7 135.54-3.25 137.94-3.25L137.94-3.25Q141.09-3.25 142.96-5.45 144.84-7.65 144.84-11.4L144.84-11.4 144.84-25.35 148.79-25.35ZM160.19-3.75L160.19 0 156.24 0 156.24-35.35 160.19-35.35 160.19-21.55Q162.94-25.75 167.89-25.75L167.89-25.75Q172.69-25.75 175.74-22.08 178.79-18.4 178.79-12.45L178.79-12.45Q178.79-7.1 175.91-3.35 173.04 0.4 167.99 0.4L167.99 0.4Q162.89 0.4 160.19-3.75L160.19-3.75ZM160.19-12.85L160.19-12.85Q160.19-7.8 162.36-5.5 164.54-3.2 167.64-3.2L167.64-3.2Q170.69-3.2 172.69-5.75 174.69-8.3 174.69-12.4L174.69-12.4Q174.69-17.1 172.61-19.63 170.54-22.15 167.39-22.15L167.39-22.15Q164.69-22.15 162.44-19.9 160.19-17.65 160.19-12.85Z" opacity="1" transform="matrix(1,0,0,1,0,0)" fill="#ffffff" class="wordmark-text-0" data-fill-palette-color="primary" id="text-0"></path></svg></g></svg></g><g transform="matrix(1,0,0,1,0,60.71586635371062)"><svg viewBox="0 0 244.43135999999998 7.898100606009805" height="7.898100606009805" width="244.43135999999998"><g transform="matrix(1,0,0,1,0,0)"><svg width="244.43135999999998" viewBox="5 -28.799999237060547 1193.050048828125 38.54999923706055" height="7.898100606009805" data-palette-color="#4b91f1"><path d="M5-28.75L5-28.75 21-28.75 21-22.85 11.3-22.85 11.3-17.2 21-17.2 21-11.5 11.3-11.5 11.3-5.65 20.8-5.65 20.8 0 5 0 5-28.75ZM23.45-5.65L23.45-5.65 23.45 0 39.45 0 39.45-5.65 23.45-5.65ZM39.45-22.85L39.45-22.85 39.45-28.75 23.25-28.75 23.25-22.85 39.45-22.85ZM31.35-11.5L31.35-11.5 31.35-17.2 23.25-17.2 23.25-11.5 31.35-11.5ZM44.45-0.05L44.45-22 50.7-22 50.7-19.85 58.4-22 58.4-17.3 50.7-17.3 50.7-0.05 44.45-0.05ZM81.2-18.55L75.5-22 73.35-22 66.95-19.25 60.4-22 60.4-17.3 60.4-0.05 66.95-0.05 66.95-17.3 74.95-17.3 74.95-0.05 81.2-0.05 81.2-18.55ZM120.55-18.55L120.55-6.4 114.95-3 107.05-3 107.05-7 114.3-7 114.3-17.3 106.75-17.3 106.75-22 114.95-22 120.55-18.55ZM90.7 9.65L90.7-22 104.55-22 104.55-17.3 97.05-17.3 97.05-7 104.3-7 104.3-3 97.05-3 97.05 9.65 90.7 9.65ZM125.45-3.5L125.45-18.55 131.3-22 139.2-22 139.2-17.3 131.7-17.3 131.7-5.4 139.2-5.4 139.2-0.05 131.3-0.05 125.45-3.5ZM154.8-3.5L154.8-18.55 148.95-22 141-22 141-17.3 148.55-17.3 148.55-5.4 141-5.4 141-0.05 148.95-0.05 154.8-3.5ZM165.05 0L159.3-20.3 165.05-22.05 169.1-7.5 175-13.25 175-5.3 169.7 0 165.05 0ZM193-20.3L187.75 0 182.6 0 177.25-5.3 177.25-13.25 183-7.5 186.55-22.05 193-20.3ZM227.8-18.55L227.8-12.85 221.9-9.4 213.9-9.4 213.9-13.25 221.45-13.25 221.45-17.35 213.9-17.35 213.9-22.05 221.9-22.05 227.8-18.55ZM221.25-6.95L227.8-6.95 227.8-3.45 221.9 0 213.9 0 213.9-5.3 221.25-5.3 221.25-6.95ZM197.6-18.55L197.6-3.45 203.5 0 211.45 0 211.45-5.3 203.9-5.3 203.9-9.4 211.45-9.4 211.45-13.25 203.9-13.25 203.9-17.35 211.45-17.35 211.45-22.05 203.5-22.05 197.6-18.55ZM236.8 0L236.8-21.85 243.05-21.85 243.05-19.7 250.55-21.85 250.55-17.2 243.05-17.2 243.05 0 236.8 0ZM259.3-15.05L259.3-19.1 252.8-21.85 252.8-15.05 259.3-15.05ZM263.8-22L270.1-22 270.1 0.05 263.8 0.05 263.8-22ZM270-28.7L270-24.05 263.8-24.05 263.8-28.7 270-28.7ZM279.1-0.05L279.1-22 285.45-22 285.45-19.85 292.85-22 292.85-17.3 285.45-17.3 285.45-0.05 279.1-0.05ZM309.05-0.05L309.05-18.55 303.15-22 295.25-22 295.25-17.3 302.8-17.3 302.8-0.05 309.05-0.05ZM324 2.25L317.55 2.25 317.55 6.3 323.4 9.75 331.3 9.75 331.3 4.5 324 4.5 324 2.25ZM317.55-6.3L317.55-18.55 323.4-22 331.3-22 331.3-17.2 323.9-17.2 323.9-6.85 331.3-6.85 331.3-2.8 323.4-2.8 317.55-6.3ZM347.6 6.3L347.6-22 333.8-22 333.8-17.2 341.25-17.2 341.25-6.85 333.8-6.85 333.8-2.8 341.25-2.8 341.25 4.5 333.8 4.5 333.8 9.75 341.75 9.75 347.6 6.3ZM372.1-28.75L372.1-28.75 388.3-28.75 388.3-23.1 378.6-23.1 378.6-17.2 388.3-17.2 388.3-11.35 378.6-11.35 378.6 0 372.1 0 372.1-28.75ZM406.75-14.75L406.75-14.75 406.75-25.3 400.9-28.75 390.55-28.75 390.55-23.1 400.25-23.1 400.25-17.2 390.55-17.2 390.55-11.35 400.9-11.35 406.75-14.75ZM411.65 0L411.65-21.85 417.9-21.85 417.9-19.7 425.4-21.85 425.4-17.2 417.9-17.2 417.9 0 411.65 0ZM434.15-15.05L434.15-19.1 427.65-21.85 427.65-15.05 434.15-15.05ZM438.65-3.5L438.65-18.55 444.5-22 452.4-22 452.4-17.3 444.9-17.3 444.9-5.4 452.4-5.4 452.4-0.05 444.5-0.05 438.65-3.5ZM468-3.5L468-18.55 462.15-22 454.2-22 454.2-17.3 461.75-17.3 461.75-5.4 454.2-5.4 454.2-0.05 462.15-0.05 468-3.5ZM505.8-28.8L505.8 0 492.2 0 492.2-5.25 499.5-5.25 499.5-17.25 492-17.25 492-21.9 499.5-21.9 499.5-28.8 505.8-28.8ZM476-3.45L476-18.45 481.7-21.9 489.8-21.9 489.8-17.25 482.1-17.25 482.1-5.25 489.6-5.25 489.6 0 481.7 0 476-3.45ZM545.1-21.85L545.1 0 538.85 0 538.85-2.25 531.35 0 531.35-5.25 538.85-5.25 538.85-21.85 545.1-21.85ZM515.3-21.85L515.3-3.45 520.95 0 529.05 0 529.05-5.25 521.6-5.25 521.6-21.85 515.3-21.85ZM554.1-3.45L554.1-18.6 559.8-22.05 568-22.05 568-17.35 560.45-17.35 560.45-5.3 567.8-5.3 567.8 0 559.8 0 554.1-3.45ZM577.8-15.1L584.1-15.1 584.1-18.6 578.4-22.05 570.25-22.05 570.25-17.35 577.8-17.35 577.8-15.1ZM577.8-6.95L584.1-6.95 584.1-3.45 578.4 0 570.25 0 570.25-5.3 577.8-5.3 577.8-6.95ZM601.6-17.2L601.6-21.85 609.1-21.85 609.1-17.2 601.6-17.2ZM609.1-7.5L615.4-7.5 615.4-3.45 609.7 0 601.6 0 601.6-5.25 609.1-5.25 609.1-7.5ZM588.6-19.35L599.35-25.3 599.35-5.25 599.35 0 593.1-3.45 593.1-17.2 588.6-17.15 588.6-19.35ZM620.9-22L627.2-22 627.2 0.05 620.9 0.05 620.9-22ZM627.1-28.7L627.1-24.05 620.9-24.05 620.9-28.7 627.1-28.7ZM631.7-20.05L638-21.85 646.25-9.3 646.25 0 644.3 0 631.7-20.05ZM662.7-20.05L656.65-21.85 648.75-9.3 648.75 0 650.55 0 662.7-20.05ZM667.2-22L673.5-22 673.5 0.05 667.2 0.05 667.2-22ZM673.4-28.7L673.4-24.05 667.2-24.05 667.2-28.7 673.4-28.7ZM691-17.2L691-21.85 698.5-21.85 698.5-17.2 691-17.2ZM698.5-7.5L704.8-7.5 704.8-3.45 699.1 0 691 0 691-5.25 698.5-5.25 698.5-7.5ZM678-19.35L688.75-25.3 688.75-5.25 688.75 0 682.5-3.45 682.5-17.2 678-17.15 678-19.35ZM710.8-6.35L710.8-21.9 717.1-21.9 717.1-6.9 724.6-6.9 724.6-2.9 716.55-2.9 710.8-6.35ZM710.8 2.25L717.1 2.25 717.1 4.55 724.6 4.55 724.6 9.75 716.55 9.75 710.8 6.3 710.8 2.25ZM734.4-21.9L740.7-21.9 740.7 6.3 734.4 9.75 726.9 9.75 726.9 4.55 734.4 4.55 734.4-2.9 726.9-2.9 726.9-6.9 734.4-6.9 734.4-21.9ZM764.2-3.4L764.2-9.75 769.9-13.2 778.1-13.2 778.1-9.35 770.55-9.35 770.55-5.25 778.1-5.25 778.1 0.05 769.9 0.05 764.2-3.4ZM770.55-15.05L764.2-15.05 764.2-18.5 769.9-22 778.1-22 778.1-17.3 770.55-17.3 770.55-15.05ZM794.2 0.05L794.2-18.5 788.5-22 780.3-22 780.3-17.3 787.85-17.3 787.85-13.2 780.3-13.2 780.3-9.35 787.85-9.35 787.85-5.25 780.5-5.25 780.5 0.05 794.2 0.05ZM803.7-0.05L803.7-22 810.05-22 810.05-19.85 817.45-22 817.45-17.3 810.05-17.3 810.05-0.05 803.7-0.05ZM833.65-0.05L833.65-18.55 827.75-22 819.85-22 819.85-17.3 827.4-17.3 827.4-0.05 833.65-0.05ZM871.95-28.8L871.95 0 858.35 0 858.35-5.25 865.65-5.25 865.65-17.25 858.15-17.25 858.15-21.9 865.65-21.9 865.65-28.8 871.95-28.8ZM842.15-3.45L842.15-18.45 847.85-21.9 855.95-21.9 855.95-17.25 848.25-17.25 848.25-5.25 855.75-5.25 855.75 0 847.85 0 842.15-3.45ZM896.95-28.75L896.95-28.75 912.95-28.75 912.95-22.85 903.25-22.85 903.25-17.2 912.95-17.2 912.95-11.5 903.25-11.5 903.25-5.65 912.75-5.65 912.75 0 896.95 0 896.95-28.75ZM915.4-5.65L915.4-5.65 915.4 0 931.4 0 931.4-5.65 915.4-5.65ZM931.4-22.85L931.4-22.85 931.4-28.75 915.2-28.75 915.2-22.85 931.4-22.85ZM923.3-11.5L923.3-11.5 923.3-17.2 915.2-17.2 915.2-11.5 923.3-11.5ZM947.65-13.2L947.65-17.2 955.2-17.2 955.2-13.2 947.65-13.2ZM945.45-28.8L945.45 0 939.2 0 939.2-13.2 934.4-13.2 934.4-17.2 939.2-17.2 939.2-25.35 945.45-28.8ZM961.45-21.85L955.2-21.85 955.2-24.15 947.65-24.15 947.65-28.8 955.8-28.8 961.45-25.35 961.45-21.85ZM973.7-13.2L973.7-17.2 981.25-17.2 981.25-13.2 973.7-13.2ZM971.5-28.8L971.5 0 965.25 0 965.25-13.2 960.45-13.2 960.45-17.2 965.25-17.2 965.25-25.35 971.5-28.8ZM987.5-21.85L981.25-21.85 981.25-24.15 973.7-24.15 973.7-28.8 981.85-28.8 987.5-25.35 987.5-21.85ZM989-22L995.3-22 995.3 0.05 989 0.05 989-22ZM995.2-28.7L995.2-24.05 989-24.05 989-28.7 995.2-28.7ZM1003.3-3.45L1003.3-18.6 1009-22.05 1017.2-22.05 1017.2-17.35 1009.65-17.35 1009.65-5.3 1017-5.3 1017 0 1009 0 1003.3-3.45ZM1027-15.1L1033.3-15.1 1033.3-18.6 1027.6-22.05 1019.45-22.05 1019.45-17.35 1027-17.35 1027-15.1ZM1027-6.95L1033.3-6.95 1033.3-3.45 1027.6 0 1019.45 0 1019.45-5.3 1027-5.3 1027-6.95ZM1041.3-22L1047.6-22 1047.6 0.05 1041.3 0.05 1041.3-22ZM1047.5-28.7L1047.5-24.05 1041.3-24.05 1041.3-28.7 1047.5-28.7ZM1085.8-18.55L1085.8-12.85 1079.9-9.4 1071.9-9.4 1071.9-13.25 1079.45-13.25 1079.45-17.35 1071.9-17.35 1071.9-22.05 1079.9-22.05 1085.8-18.55ZM1079.25-6.95L1085.8-6.95 1085.8-3.45 1079.9 0 1071.9 0 1071.9-5.3 1079.25-5.3 1079.25-6.95ZM1055.6-18.55L1055.6-3.45 1061.5 0 1069.45 0 1069.45-5.3 1061.9-5.3 1061.9-9.4 1069.45-9.4 1069.45-13.25 1061.9-13.25 1061.9-17.35 1069.45-17.35 1069.45-22.05 1061.5-22.05 1055.6-18.55ZM1094.8-0.05L1094.8-22 1101.15-22 1101.15-19.85 1108.55-22 1108.55-17.3 1101.15-17.3 1101.15-0.05 1094.8-0.05ZM1124.75-0.05L1124.75-18.55 1118.85-22 1110.95-22 1110.95-17.3 1118.5-17.3 1118.5-0.05 1124.75-0.05ZM1133.25-3.45L1133.25-18.6 1138.95-22.05 1147.15-22.05 1147.15-17.35 1139.6-17.35 1139.6-5.3 1146.95-5.3 1146.95 0 1138.95 0 1133.25-3.45ZM1156.95-15.1L1163.25-15.1 1163.25-18.6 1157.55-22.05 1149.4-22.05 1149.4-17.35 1156.95-17.35 1156.95-15.1ZM1156.95-6.95L1163.25-6.95 1163.25-3.45 1157.55 0 1149.4 0 1149.4-5.3 1156.95-5.3 1156.95-6.95ZM1168.15-6.35L1168.15-21.9 1174.45-21.9 1174.45-6.9 1181.95-6.9 1181.95-2.9 1173.9-2.9 1168.15-6.35ZM1168.15 2.25L1174.45 2.25 1174.45 4.55 1181.95 4.55 1181.95 9.75 1173.9 9.75 1168.15 6.3 1168.15 2.25ZM1191.75-21.9L1198.05-21.9 1198.05 6.3 1191.75 9.75 1184.25 9.75 1184.25 4.55 1191.75 4.55 1191.75-2.9 1184.25-2.9 1184.25-6.9 1191.75-6.9 1191.75-21.9Z" opacity="1" transform="matrix(1,0,0,1,0,0)" fill="#ffffff" class="slogan-text-1" data-fill-palette-color="secondary" id="text-1"></path></svg></g></svg></g></svg></g></svg></g></svg></g></svg></g></svg></g><g><path d="M0 123.6c0-68.262 55.338-123.6 123.6-123.6 54.225 0 100.294 34.918 116.948 83.495h-2.344c-16.562-47.332-61.618-81.28-114.604-81.28-67.039 0-121.385 54.346-121.385 121.385 0 67.039 54.346 121.385 121.385 121.385 52.985 0 98.041-33.948 114.604-81.28l2.344 0c-16.655 48.577-62.724 83.495-116.948 83.495-68.262 0-123.6-55.338-123.6-123.6z" fill="#ffffff" stroke="transparent" data-fill-palette-color="tertiary"></path></g></svg></g><defs></defs></svg><rect width="395.52" height="247.2" fill="none" stroke="none" visibility="hidden"></rect></g></svg></g></svg>